<svg height="512" viewBox="0 0 512 512" width="512" xmlns="http://www.w3.org/2000/svg"><g id="ouline"><path d="m279.468 31.6-18.668-14a8 8 0 0 0 -9.6 0l-18.668 14a881.418 881.418 0 0 1 -163.843 97.117 8 8 0 0 0 -4.689 7.283v12.328a413.527 413.527 0 0 0 187.63 346.372 8 8 0 0 0 8.741 0 413.522 413.522 0 0 0 187.629-346.372v-12.328a8 8 0 0 0 -4.689-7.283 881.5 881.5 0 0 1 -163.843-97.117zm152.532 116.728a397.521 397.521 0 0 1 -176 330.079 397.521 397.521 0 0 1 -176-330.079v-7.193a897.477 897.477 0 0 0 162.131-96.735l13.869-10.4 13.869 10.4a897.477 897.477 0 0 0 162.131 96.735z"/><path d="m251.562 57.344-42 28a573.349 573.349 0 0 1 -61.4 35.629l-47.748 23.874a8 8 0 0 0 -4.365 8.108l4.937 41.14a382.321 382.321 0 0 0 150.214 260.305 8 8 0 0 0 9.6 0 380.22 380.22 0 0 0 101.753-114.775 380.228 380.228 0 0 0 48.453-145.532l4.937-41.14a8 8 0 0 0 -4.365-8.108l-47.748-23.874a573.474 573.474 0 0 1 -61.395-35.629l-42-28a8 8 0 0 0 -8.873.002zm105.112 77.937 42.712 21.356-4.265 35.55a366.332 366.332 0 0 1 -139.121 245.752 366.326 366.326 0 0 1 -139.12-245.752l-4.266-35.55 42.712-21.356a589.42 589.42 0 0 0 63.114-36.626l37.56-25.04 37.56 25.04a589.376 589.376 0 0 0 63.114 36.626z"/><path d="m224 176v32h-32a8 8 0 0 0 -8 8v48a8 8 0 0 0 8 8h32v32a8 8 0 0 0 8 8h48a8 8 0 0 0 8-8v-32h32a8 8 0 0 0 8-8v-48a8 8 0 0 0 -8-8h-32v-32a8 8 0 0 0 -8-8h-48a8 8 0 0 0 -8 8zm16 40v-32h32v32a8 8 0 0 0 8 8h32v32h-32a8 8 0 0 0 -8 8v32h-32v-32a8 8 0 0 0 -8-8h-32v-32h32a8 8 0 0 0 8-8z"/><path d="m336 160h16v16h-16z"/><path d="m336 192h16v16h-16z"/><path d="m216 328h16v16h-16z"/><path d="m192 304h16v16h-16z"/><path d="m320 176h16v16h-16z"/><path d="m352 176h16v16h-16z"/></g></svg>