<?xml version="1.0" encoding="UTF-8"?>
<svg xmlns="http://www.w3.org/2000/svg" viewBox="0 0 512 512" width="512" height="512"><g id="ouline"><path d="M172,120a44.049,44.049,0,0,0-44,44V393.376A24.039,24.039,0,0,0,112,416v16a24,24,0,0,0,46.624,8H264v48a8,8,0,0,0,8,8h64a8,8,0,0,0,8-8v-1.591A88.01,88.01,0,1,0,384,320V164a44.049,44.049,0,0,0-44-44H328V62.624A24,24,0,0,0,320,16H192a24,24,0,0,0-8,46.624V120ZM144,432a8,8,0,0,1-16,0V416a8,8,0,0,1,16,0Zm24-8h-8v-8a24.039,24.039,0,0,0-16-22.624V384h12a12.013,12.013,0,0,1,12,12Zm160,56H280V440h48Zm-40-56V412a4,4,0,0,1,4-4h4a88.584,88.584,0,0,0,1.454,16Zm28-16a4,4,0,0,1,4,4v12h-6.21A72.3,72.3,0,0,1,312,408Zm-4-56V176a8,8,0,0,1,16,0V340.167a88.775,88.775,0,0,0-14.925,15.8A7.978,7.978,0,0,1,312,352Zm72-16a72,72,0,1,1-40,131.874V432a8,8,0,0,0-8-8V412a20.023,20.023,0,0,0-20-20h-2.186A72.111,72.111,0,0,1,384,336ZM192,32H320a8,8,0,0,1,0,16H192a8,8,0,0,1,0-16ZM312,64v56H296V64Zm-32,0v56H232V64Zm-64,0v56H200V64Zm-24,72H340a28.032,28.032,0,0,1,28,28V321.462a87.319,87.319,0,0,0-24,8.166V176a24,24,0,0,0-48,0V352a23.955,23.955,0,0,0,8.488,18.317A87.258,87.258,0,0,0,297.462,392H292a20.023,20.023,0,0,0-20,20v12H184V396a28.032,28.032,0,0,0-28-28H144V164a28.032,28.032,0,0,1,28-28Z"/><path d="M256,376a24.028,24.028,0,0,0,24-24V176a24,24,0,0,0-48,0V352A24.028,24.028,0,0,0,256,376Zm-8-200a8,8,0,0,1,16,0V352a8,8,0,0,1-16,0Z"/><path d="M168,352a24,24,0,0,0,48,0V176a24,24,0,0,0-48,0Zm16-176a8,8,0,0,1,16,0V352a8,8,0,0,1-16,0Z"/><path d="M379.2,406.4l32,24a8,8,0,0,0,9.6-12.8L392,396V352a8,8,0,0,0-16,0v48A8,8,0,0,0,379.2,406.4Z"/></g></svg>
