<?xml version="1.0" encoding="UTF-8"?>
<svg xmlns="http://www.w3.org/2000/svg" viewBox="0 0 512 512" width="512" height="512"><g id="ouline"><path d="M104,296v32a8,8,0,0,0,8,8h32a8,8,0,0,0,8-8V296a8,8,0,0,0-8-8H112A8,8,0,0,0,104,296Zm16,8h16v16H120Z"/><path d="M176,272h32a8,8,0,0,0,8-8V232a8,8,0,0,0-8-8H176a8,8,0,0,0-8,8v32A8,8,0,0,0,176,272Zm8-32h16v16H184Z"/><path d="M176,336h32a8,8,0,0,0,8-8V296a8,8,0,0,0-8-8H176a8,8,0,0,0-8,8v32A8,8,0,0,0,176,336Zm8-32h16v16H184Z"/><path d="M240,272h32a8,8,0,0,0,8-8V232a8,8,0,0,0-8-8H240a8,8,0,0,0-8,8v32A8,8,0,0,0,240,272Zm8-32h16v16H248Z"/><path d="M240,336h32a8,8,0,0,0,8-8V296a8,8,0,0,0-8-8H240a8,8,0,0,0-8,8v32A8,8,0,0,0,240,336Zm8-32h16v16H248Z"/><path d="M304,336h32a8,8,0,0,0,8-8V296a8,8,0,0,0-8-8H304a8,8,0,0,0-8,8v32A8,8,0,0,0,304,336Zm8-32h16v16H312Z"/><path d="M368,336h32a8,8,0,0,0,8-8V296a8,8,0,0,0-8-8H368a8,8,0,0,0-8,8v32A8,8,0,0,0,368,336Zm8-32h16v16H376Z"/><path d="M488.948,199.338l-32.353-3.86-13.69-29.238a8,8,0,0,0-14.49,0l-13.69,29.238-17.6,2.1-3.688-18.568,27.978-25.716a8,8,0,0,0-4.466-13.834l-37.972-4.53-16.071-34.323a8,8,0,0,0-14.49,0L332.344,134.93l-28.15,3.358L299.377,113.8l34.066-31.625a8,8,0,0,0-4.486-13.805l-46.149-5.562-19.55-42.172a8,8,0,0,0-14.516,0l-19.55,42.172-46.149,5.562a8,8,0,0,0-4.486,13.805L212.623,113.8l-4.009,20.386-28.958-3.455L163.585,96.408a8,8,0,0,0-14.49,0L133.024,130.73l-37.972,4.53a8,8,0,0,0-4.466,13.834l27.978,25.716-3.688,18.568-17.6-2.1-13.69-29.237a8,8,0,0,0-14.49,0l-13.69,29.237-32.353,3.86a8,8,0,0,0-4.466,13.834l23.831,21.9-6.271,31.566a8,8,0,0,0,11.71,8.564L64,262.1V368H56a8,8,0,0,0-8,8v72a8,8,0,0,0-8,8v32a8,8,0,0,0,8,8H464a8,8,0,0,0,8-8V456a8,8,0,0,0-8-8V376a8,8,0,0,0-8-8h-8V266.3l16.144,8.907a8,8,0,0,0,11.71-8.564l-6.271-31.566,23.831-21.9a8,8,0,0,0-4.466-13.834Zm-150.3-49.047a8,8,0,0,0,6.3-4.552l10.711-22.874,10.71,22.874a8,8,0,0,0,6.3,4.552l25.111,3L379.3,170.271a8,8,0,0,0-2.433,7.449l4.341,21.847a7.978,7.978,0,0,0-2.395,1.128l-19.288-10.641a8,8,0,0,0-7.728,0l-22.23,12.263,4.888-24.6a8,8,0,0,0-2.433-7.449l-18.479-16.985ZM202.09,82.189l33.442-4.031a8,8,0,0,0,6.3-4.577L256,43.021l14.167,30.56a8,8,0,0,0,6.3,4.577l33.442,4.031-24.686,22.917a8,8,0,0,0-2.407,7.407l5.96,30.3a7.963,7.963,0,0,0-.978,1.906l-27.9-15.55a8.008,8.008,0,0,0-7.79,0l-27.552,15.354a7.843,7.843,0,0,0-.708-4.873l5.338-27.135a8,8,0,0,0-2.407-7.407Zm4.71,85.235a8,8,0,0,0,8.6.516L256,145.314l40.6,22.626a8,8,0,0,0,8.6-.516c.015-.01.027-.024.042-.035l12.643,11.621L315.9,189H196.935l-2.82-14.19,10.563-9.709A7.975,7.975,0,0,0,206.8,167.424ZM328,240v16H312V240ZM114.222,149.087l25.111-3a8,8,0,0,0,6.3-4.551l10.71-22.874,10.711,22.874a8,8,0,0,0,6.3,4.551l25.11,3-18.479,16.985a8,8,0,0,0-2.433,7.449l4.721,23.76q.014.4.064.781L160.2,185.854a8,8,0,0,0-7.728,0L133.188,196.5a7.951,7.951,0,0,0-2.395-1.127l4.341-21.848a8,8,0,0,0-2.433-7.449Zm28.535,122.154a8,8,0,0,0,8-8v-32a8,8,0,0,0-8-8H118.57l2.165-1.99a7.973,7.973,0,0,0,2.177-.813L156.34,202l33.429,18.442a8,8,0,0,0,11.71-8.564L200.114,205H312.721l-2.2,11.074A7.993,7.993,0,0,0,313.538,224H304a8,8,0,0,0-8,8v32a8,8,0,0,0,8,8h32a8,8,0,0,0,8-8V232a8,8,0,0,0-8-8H323.387L355.66,206.2l33.428,18.443c.06.033.124.055.185.087h-21.48a8,8,0,0,0-8,8v32a8,8,0,0,0,8,8h28.943a7.973,7.973,0,0,0,10.44,2.48L432,261.51V368H348.944l-5.789-11.578A8,8,0,0,0,336,352H176a8,8,0,0,0-7.155,4.422L163.056,368H80V257.31l24.824,13.695a7.988,7.988,0,0,0,7.221.236Zm-24-16v-16h16v16Zm273.036-14.516v16h-16v-16ZM392,400a24.027,24.027,0,0,0-24,24v24H336V400h16a8,8,0,0,0,7.155-11.578L356.944,384H448v64H416V424A24.027,24.027,0,0,0,392,400Zm8,24v24H384V424a8,8,0,0,1,16,0ZM172.944,384l8-16H331.056l8,16ZM320,400v48H304V400Zm-96,24V400h64v24Zm64,16v8H224v-8Zm-80-40v48H192V400ZM55.191,248.685l3.795-19.1a8,8,0,0,0-2.432-7.449L42.223,208.964l19.491-2.325a8,8,0,0,0,6.3-4.551L76.34,184.3l8.33,17.79a8,8,0,0,0,6.3,4.551l19.491,2.325L96.127,222.136a8,8,0,0,0-2.433,7.449l3.8,19.1L80.2,239.149a8,8,0,0,0-7.728,0ZM64,384h91.056l-2.211,4.422A8,8,0,0,0,160,400h16v48H144V424a24,24,0,0,0-48,0v24H64Zm64,40v24H112V424a8,8,0,0,1,16,0Zm328,40v16H56V464Zm-.554-237.664a8,8,0,0,0-2.432,7.449l3.8,19.1-17.285-9.535a8,8,0,0,0-7.728,0l-17.285,9.536,3.795-19.1a8,8,0,0,0-2.433-7.449l-14.331-13.172,19.491-2.325a8,8,0,0,0,6.3-4.551l8.33-17.79,8.329,17.79a8,8,0,0,0,6.3,4.551l19.491,2.325Z"/></g></svg>
